<svg viewBox="0 0 32 32" fill="none" xmlns="http://www.w3.org/2000/svg">
	<path d="M20 6.5C20 5.12 18.88 4 17.5 4C16.12 4 15 5.12 15 6.5H11C10.17 6.5 9.5 7.17 9.5 8V12C8.12 12 7 13.12 7 14.5C7 15.88 8.12 17 9.5 17V21C9.5 21.83 10.17 22.5 11 22.5H15C15 23.88 16.12 25 17.5 25C18.88 25 20 23.88 20 22.5H24C24.83 22.5 25.5 21.83 25.5 21V17C26.88 17 28 15.88 28 14.5C28 13.12 26.88 12 25.5 12V8C25.5 7.17 24.83 6.5 24 6.5H20Z" fill="#fcd34d"/>
	<path d="M18.5 4.5C18.5 3.12 17.38 2 16 2C14.62 2 13.5 3.12 13.5 4.5H9.5C8.67 4.5 8 5.17 8 6V10C6.62 10 5.5 11.12 5.5 12.5C5.5 13.88 6.62 15 8 15V19C8 19.83 8.67 20.5 9.5 20.5H13.5C13.5 21.88 14.62 23 16 23C17.38 23 18.5 21.88 18.5 20.5H22.5C23.33 20.5 24 19.83 24 19V15C25.38 15 26.5 13.88 26.5 12.5C26.5 11.12 25.38 10 24 10V6C24 5.17 23.33 4.5 22.5 4.5H18.5Z" fill="#0f766e"/>
	<circle cx="13.5" cy="11.5" r="1.5" fill="#ffffff"/>
	<circle cx="18.5" cy="11.5" r="1.5" fill="#ffffff"/>
	<path d="M13.5 15.5Q16 18 18.5 15.5" stroke="#ffffff" stroke-width="2" stroke-linecap="round"/>
</svg>